<?xml version="1.0" encoding="utf-8"?>
<!-- Generator: Adobe Illustrator 24.2.0, SVG Export Plug-In . SVG Version: 6.00 Build 0)  -->
<svg version="1.1" id="Layer_1" xmlns="http://www.w3.org/2000/svg" xmlns:xlink="http://www.w3.org/1999/xlink" x="0px" y="0px"
	 width="228px" height="82px" viewBox="0 0 228 82" style="enable-background:new 0 0 228 82;" xml:space="preserve">
<style type="text/css">
	.st0{filter:url(#Adobe_OpacityMaskFilter);}
	.st1{fill-rule:evenodd;clip-rule:evenodd;fill:#FFFFFF;}
	.st2{mask:url(#_x30_fovvz853b_1_);fill:#FFFFFF;}
	.st3{filter:url(#Adobe_OpacityMaskFilter_1_);}
	.st4{mask:url(#a54nkl7g8d_1_);fill:#FFFFFF;}
	.st5{filter:url(#Adobe_OpacityMaskFilter_2_);}
	.st6{mask:url(#zhvgeg3z9f_1_);fill:#FFFFFF;}
	.st7{filter:url(#Adobe_OpacityMaskFilter_3_);}
	.st8{mask:url(#wyemfs2afh_1_);fill:#FFFFFF;}
	.st9{filter:url(#Adobe_OpacityMaskFilter_4_);}
	.st10{mask:url(#gwwn4r3ymj_1_);fill:#FFFFFF;}
	.st11{filter:url(#Adobe_OpacityMaskFilter_5_);}
	.st12{mask:url(#dh36byymvl_1_);fill:#AA217D;}
	.st13{filter:url(#Adobe_OpacityMaskFilter_6_);}
	.st14{mask:url(#x946gr28xn_1_);fill:#AA217D;}
	.st15{filter:url(#Adobe_OpacityMaskFilter_7_);}
	.st16{mask:url(#_x38_62a2spvap_1_);fill:#E32F7F;}
	.st17{filter:url(#Adobe_OpacityMaskFilter_8_);}
	.st18{mask:url(#mwm6k1zs5r_1_);fill:#E32F7F;}
	.st19{filter:url(#Adobe_OpacityMaskFilter_9_);}
	.st20{mask:url(#hra55cdowt_1_);fill:#922681;}
	.st21{filter:url(#Adobe_OpacityMaskFilter_10_);}
	.st22{mask:url(#ll60nx8d2v_1_);fill:#922681;}
	.st23{filter:url(#Adobe_OpacityMaskFilter_11_);}
	.st24{mask:url(#cpl24se1px_1_);fill:#E76924;}
	.st25{filter:url(#Adobe_OpacityMaskFilter_12_);}
	.st26{mask:url(#vozx3n0fkz_1_);fill:#E76924;}
	.st27{filter:url(#Adobe_OpacityMaskFilter_13_);}
	.st28{mask:url(#_x34_b693qbupB_1_);fill:#D41F34;}
	.st29{filter:url(#Adobe_OpacityMaskFilter_14_);}
	.st30{mask:url(#_x30_iqhnhj70D_1_);fill:#0894CE;}
	.st31{filter:url(#Adobe_OpacityMaskFilter_15_);}
	.st32{mask:url(#i2oln2eagF_1_);fill:#0894CE;}
	.st33{filter:url(#Adobe_OpacityMaskFilter_16_);}
	.st34{mask:url(#_x39_wp6hfwo0H_1_);fill:#0781C2;}
	.st35{filter:url(#Adobe_OpacityMaskFilter_17_);}
	.st36{mask:url(#s1a8n6uveJ_1_);fill:#0781C2;}
	.st37{filter:url(#Adobe_OpacityMaskFilter_18_);}
	.st38{mask:url(#y0lww5u39L_1_);fill:#94BE3D;}
	.st39{filter:url(#Adobe_OpacityMaskFilter_19_);}
	.st40{mask:url(#xbdv36yygN_1_);fill:#94BE3D;}
	.st41{filter:url(#Adobe_OpacityMaskFilter_20_);}
	.st42{mask:url(#bvnd2isxiP_1_);fill:#048D45;}
	.st43{enable-background:new    ;}
	.st44{fill:#FFFFFF;}
</style>
<g>
	<g>
		<g>
			<g>
				<g transform="translate(-836 -153) translate(0 70) translate(836 83)">
					<defs>
						<filter id="Adobe_OpacityMaskFilter" filterUnits="userSpaceOnUse" x="0.9" y="23.2" width="34.9" height="41.3">
							<feColorMatrix  type="matrix" values="1 0 0 0 0  0 1 0 0 0  0 0 1 0 0  0 0 0 1 0"/>
						</filter>
					</defs>
					<mask maskUnits="userSpaceOnUse" x="0.9" y="23.2" width="34.9" height="41.3" id="_x30_fovvz853b_1_">
						<g class="st0">
							<path id="ddgdlot4ra_1_" class="st1" d="M0.8,0.4h226.3v64.1H0.8V0.4z"/>
						</g>
					</mask>
					<path class="st2" d="M35.8,62.2c-2.8,1-8,2.3-13.2,2.3c-7.2,0-12.5-1.9-16.1-5.5c-3.7-3.5-5.6-8.8-5.6-14.7
						c0.1-13.4,9.6-21.1,22.6-21.1c5.1,0,9,1,11,2l-1.9,7.3c-2.2-1-4.9-1.7-9.2-1.7c-7.5,0-13.1,4.3-13.1,13.1
						c0,8.3,5.1,13.3,12.5,13.3c2,0,3.7-0.2,4.4-0.6V48h-6.1v-7.1h14.7L35.8,62.2L35.8,62.2L35.8,62.2z"/>
				</g>
				<g transform="translate(-836 -153) translate(0 70) translate(836 83)">
					<defs>
						<filter id="Adobe_OpacityMaskFilter_1_" filterUnits="userSpaceOnUse" x="41.8" y="33.7" width="19" height="30.4">
							<feColorMatrix  type="matrix" values="1 0 0 0 0  0 1 0 0 0  0 0 1 0 0  0 0 0 1 0"/>
						</filter>
					</defs>
					<mask maskUnits="userSpaceOnUse" x="41.8" y="33.7" width="19" height="30.4" id="a54nkl7g8d_1_">
						<g class="st3">
							<path id="_x31_cviwr8tic_1_" class="st1" d="M0.8,0.4h226.3v64.1H0.8V0.4z"/>
						</g>
					</mask>
					<path class="st4" d="M59.5,51.2H48.6v7.2h12.2v5.6h-19V33.7h18.3v5.6H48.6v6.3h10.9V51.2z"/>
				</g>
				<g transform="translate(-836 -153) translate(0 70) translate(836 83)">
					<defs>
						<filter id="Adobe_OpacityMaskFilter_2_" filterUnits="userSpaceOnUse" x="65.4" y="33.7" width="24.6" height="30.4">
							<feColorMatrix  type="matrix" values="1 0 0 0 0  0 1 0 0 0  0 0 1 0 0  0 0 0 1 0"/>
						</filter>
					</defs>
					<mask maskUnits="userSpaceOnUse" x="65.4" y="33.7" width="24.6" height="30.4" id="zhvgeg3z9f_1_">
						<g class="st5">
							<path id="s6n6fw2t1e_1_" class="st1" d="M0.8,0.4h226.3v64.1H0.8V0.4z"/>
						</g>
					</mask>
					<path class="st6" d="M65.4,33.7h7.8l6.2,11.1c1.8,3.2,3.5,7,4.9,10.4h0.1c-0.4-4-0.6-8.1-0.6-12.7v-8.9h6.2V64h-7.1l-6.3-11.7
						c-1.8-3.2-3.7-7.2-5.2-10.7l-0.1,0.1c0.2,4,0.3,8.3,0.3,13.2V64h-6.2v0L65.4,33.7L65.4,33.7z"/>
				</g>
				<g transform="translate(-836 -153) translate(0 70) translate(836 83)">
					<defs>
						<filter id="Adobe_OpacityMaskFilter_3_" filterUnits="userSpaceOnUse" x="95.8" y="33.7" width="19" height="30.4">
							<feColorMatrix  type="matrix" values="1 0 0 0 0  0 1 0 0 0  0 0 1 0 0  0 0 0 1 0"/>
						</filter>
					</defs>
					<mask maskUnits="userSpaceOnUse" x="95.8" y="33.7" width="19" height="30.4" id="wyemfs2afh_1_">
						<g class="st7">
							<path id="_x38_7cfq4y1jg_1_" class="st1" d="M0.8,0.4h226.3v64.1H0.8V0.4z"/>
						</g>
					</mask>
					<path class="st8" d="M113.4,51.2h-10.9v7.2h12.2v5.6h-19V33.7h18.4v5.6h-11.6v6.3h10.9V51.2z"/>
				</g>
				<g transform="translate(-836 -153) translate(0 70) translate(836 83)">
					<defs>
						<filter id="Adobe_OpacityMaskFilter_4_" filterUnits="userSpaceOnUse" x="117.9" y="33.2" width="28.6" height="31.3">
							<feColorMatrix  type="matrix" values="1 0 0 0 0  0 1 0 0 0  0 0 1 0 0  0 0 0 1 0"/>
						</filter>
					</defs>
					<mask maskUnits="userSpaceOnUse" x="117.9" y="33.2" width="28.6" height="31.3" id="gwwn4r3ymj_1_">
						<g class="st9">
							<path id="y5n3fg9qti_1_" class="st1" d="M0.8,0.4h226.3v64.1H0.8V0.4z"/>
						</g>
					</mask>
					<path class="st10" d="M146.5,48.6c0,10-5.9,16-14.6,16c-8.8,0-14-6.8-14-15.5c0-9.1,5.7-15.9,14.4-15.9
						C141.5,33.2,146.5,40.2,146.5,48.6 M125,49c0,5.9,2.7,10.1,7.2,10.1c4.5,0,7.1-4.4,7.1-10.3c0-5.4-2.6-10.1-7.2-10.1
						C127.7,38.7,125,43.1,125,49"/>
				</g>
				<g transform="translate(-836 -153) translate(0 70) translate(836 83)">
					<defs>
						<filter id="Adobe_OpacityMaskFilter_5_" filterUnits="userSpaceOnUse" x="151.2" y="0.4" width="45.2" height="50.6">
							<feColorMatrix  type="matrix" values="1 0 0 0 0  0 1 0 0 0  0 0 1 0 0  0 0 0 1 0"/>
						</filter>
					</defs>
					<mask maskUnits="userSpaceOnUse" x="151.2" y="0.4" width="45.2" height="50.6" id="dh36byymvl_1_">
						<g class="st11">
							<path id="gbjk0zrcek_1_" class="st1" d="M0.8,0.4h226.3v64.1H0.8V0.4z"/>
						</g>
					</mask>
					<path class="st12" d="M151.2,45.7l45.2-45.3L178.2,51L151.2,45.7z"/>
				</g>
				<g transform="translate(-836 -153) translate(0 70) translate(836 83)">
					<defs>
						<filter id="Adobe_OpacityMaskFilter_6_" filterUnits="userSpaceOnUse" x="181.8" y="0.4" width="25" height="63.8">
							<feColorMatrix  type="matrix" values="1 0 0 0 0  0 1 0 0 0  0 0 1 0 0  0 0 0 1 0"/>
						</filter>
					</defs>
					<mask maskUnits="userSpaceOnUse" x="181.8" y="0.4" width="25" height="63.8" id="x946gr28xn_1_">
						<g class="st13">
							<path id="qbv98lwbwm_1_" class="st1" d="M0.8,0.4h226.3v64.1H0.8V0.4z"/>
						</g>
					</mask>
					<path class="st14" d="M206.8,64.3L196.4,0.4l-14.6,52.3L206.8,64.3z"/>
				</g>
				<g transform="translate(-836 -153) translate(0 70) translate(836 83)">
					<defs>
						<filter id="Adobe_OpacityMaskFilter_7_" filterUnits="userSpaceOnUse" x="149.8" y="2.4" width="33.3" height="37.3">
							<feColorMatrix  type="matrix" values="1 0 0 0 0  0 1 0 0 0  0 0 1 0 0  0 0 0 1 0"/>
						</filter>
					</defs>
					<mask maskUnits="userSpaceOnUse" x="149.8" y="2.4" width="33.3" height="37.3" id="_x38_62a2spvap_1_">
						<g class="st15">
							<path id="z1ofyuwqvo_1_" class="st1" d="M0.8,0.4h226.3v64.1H0.8V0.4z"/>
						</g>
					</mask>
					<path class="st16" d="M149.8,35.7l33.3-33.3l-14,37.3L149.8,35.7z"/>
				</g>
				<g transform="translate(-836 -153) translate(0 70) translate(836 83)">
					<defs>
						<filter id="Adobe_OpacityMaskFilter_8_" filterUnits="userSpaceOnUse" x="172.9" y="2.4" width="17.9" height="47">
							<feColorMatrix  type="matrix" values="1 0 0 0 0  0 1 0 0 0  0 0 1 0 0  0 0 0 1 0"/>
						</filter>
					</defs>
					<mask maskUnits="userSpaceOnUse" x="172.9" y="2.4" width="17.9" height="47" id="mwm6k1zs5r_1_">
						<g class="st17">
							<path id="flwlot792q_1_" class="st1" d="M0.8,0.4h226.3v64.1H0.8V0.4z"/>
						</g>
					</mask>
					<path class="st18" d="M190.7,49.4l-7.6-47l-10.2,38.5L190.7,49.4z"/>
				</g>
				<g transform="translate(-836 -153) translate(0 70) translate(836 83)">
					<defs>
						<filter id="Adobe_OpacityMaskFilter_9_" filterUnits="userSpaceOnUse" x="159.3" y="20.6" width="17" height="19">
							<feColorMatrix  type="matrix" values="1 0 0 0 0  0 1 0 0 0  0 0 1 0 0  0 0 0 1 0"/>
						</filter>
					</defs>
					<mask maskUnits="userSpaceOnUse" x="159.3" y="20.6" width="17" height="19" id="hra55cdowt_1_">
						<g class="st19">
							<path id="nt69fnaeas_1_" class="st1" d="M0.8,0.4h226.3v64.1H0.8V0.4z"/>
						</g>
					</mask>
					<path class="st20" d="M176.3,20.6l-17,17l9.8,2L176.3,20.6z"/>
				</g>
				<g transform="translate(-836 -153) translate(0 70) translate(836 83)">
					<defs>
						<filter id="Adobe_OpacityMaskFilter_10_" filterUnits="userSpaceOnUse" x="183.7" y="39.3" width="7.1" height="10.1">
							<feColorMatrix  type="matrix" values="1 0 0 0 0  0 1 0 0 0  0 0 1 0 0  0 0 0 1 0"/>
						</filter>
					</defs>
					<mask maskUnits="userSpaceOnUse" x="183.7" y="39.3" width="7.1" height="10.1" id="ll60nx8d2v_1_">
						<g class="st21">
							<path id="olo83wlp1u_1_" class="st1" d="M0.8,0.4h226.3v64.1H0.8V0.4z"/>
						</g>
					</mask>
					<path class="st22" d="M189.3,40.5l-3.7-1.2l-1.9,6.7l7.1,3.4L189.3,40.5z"/>
				</g>
				<g transform="translate(-836 -153) translate(0 70) translate(836 83)">
					<defs>
						<filter id="Adobe_OpacityMaskFilter_11_" filterUnits="userSpaceOnUse" x="140.7" y="0.5" width="29.3" height="20.7">
							<feColorMatrix  type="matrix" values="1 0 0 0 0  0 1 0 0 0  0 0 1 0 0  0 0 0 1 0"/>
						</filter>
					</defs>
					<mask maskUnits="userSpaceOnUse" x="140.7" y="0.5" width="29.3" height="20.7" id="cpl24se1px_1_">
						<g class="st23">
							<path id="ky9fnjo9rw_1_" class="st1" d="M0.8,0.4h226.3v64.1H0.8V0.4z"/>
						</g>
					</mask>
					<path class="st24" d="M140.7,14.1L170,0.5l-17.6,20.7L140.7,14.1z"/>
				</g>
				<g transform="translate(-836 -153) translate(0 70) translate(836 83)">
					<defs>
						<filter id="Adobe_OpacityMaskFilter_12_" filterUnits="userSpaceOnUse" x="154.5" y="0.5" width="15.5" height="32.3">
							<feColorMatrix  type="matrix" values="1 0 0 0 0  0 1 0 0 0  0 0 1 0 0  0 0 0 1 0"/>
						</filter>
					</defs>
					<mask maskUnits="userSpaceOnUse" x="154.5" y="0.5" width="15.5" height="32.3" id="vozx3n0fkz_1_">
						<g class="st25">
							<path id="wjwmn3ezpy_1_" class="st1" d="M0.8,0.4h226.3v64.1H0.8V0.4z"/>
						</g>
					</mask>
					<path class="st26" d="M164.1,32.8L170,0.5L154.5,23L164.1,32.8z"/>
				</g>
				<g transform="translate(-836 -153) translate(0 70) translate(836 83)">
					<defs>
						<filter id="Adobe_OpacityMaskFilter_13_" filterUnits="userSpaceOnUse" x="158.5" y="18.8" width="8.2" height="13.9">
							<feColorMatrix  type="matrix" values="1 0 0 0 0  0 1 0 0 0  0 0 1 0 0  0 0 0 1 0"/>
						</filter>
					</defs>
					<mask maskUnits="userSpaceOnUse" x="158.5" y="18.8" width="8.2" height="13.9" id="_x34_b693qbupB_1_">
						<g class="st27">
							<path id="l8g0bnr9uA_1_" class="st1" d="M0.8,0.4h226.3v64.1H0.8V0.4z"/>
						</g>
					</mask>
					<path class="st28" d="M166.6,18.8l-8.2,8.2l5.7,5.8L166.6,18.8z"/>
				</g>
				<g transform="translate(-836 -153) translate(0 70) translate(836 83)">
					<defs>
						<filter id="Adobe_OpacityMaskFilter_14_" filterUnits="userSpaceOnUse" x="180.2" y="13.4" width="29.7" height="29">
							<feColorMatrix  type="matrix" values="1 0 0 0 0  0 1 0 0 0  0 0 1 0 0  0 0 0 1 0"/>
						</filter>
					</defs>
					<mask maskUnits="userSpaceOnUse" x="180.2" y="13.4" width="29.7" height="29" id="_x30_iqhnhj70D_1_">
						<g class="st29">
							<path id="a9t33xnxhC_1_" class="st1" d="M0.8,0.4h226.3v64.1H0.8V0.4z"/>
						</g>
					</mask>
					<path class="st30" d="M180.2,37.6l29.7-24.2l-14.4,29L180.2,37.6z"/>
				</g>
				<g transform="translate(-836 -153) translate(0 70) translate(836 83)">
					<defs>
						<filter id="Adobe_OpacityMaskFilter_15_" filterUnits="userSpaceOnUse" x="198.5" y="13.4" width="13.8" height="38.8">
							<feColorMatrix  type="matrix" values="1 0 0 0 0  0 1 0 0 0  0 0 1 0 0  0 0 0 1 0"/>
						</filter>
					</defs>
					<mask maskUnits="userSpaceOnUse" x="198.5" y="13.4" width="13.8" height="38.8" id="i2oln2eagF_1_">
						<g class="st31">
							<path id="_x32_wzy5i32uE_1_" class="st1" d="M0.8,0.4h226.3v64.1H0.8V0.4z"/>
						</g>
					</mask>
					<path class="st32" d="M212.3,52.1l-2.4-38.8l-11.4,30.4L212.3,52.1z"/>
				</g>
				<g transform="translate(-836 -153) translate(0 70) translate(836 83)">
					<defs>
						<filter id="Adobe_OpacityMaskFilter_16_" filterUnits="userSpaceOnUse" x="198.5" y="34.4" width="5.6" height="12.7">
							<feColorMatrix  type="matrix" values="1 0 0 0 0  0 1 0 0 0  0 0 1 0 0  0 0 0 1 0"/>
						</filter>
					</defs>
					<mask maskUnits="userSpaceOnUse" x="198.5" y="34.4" width="5.6" height="12.7" id="_x39_wp6hfwo0H_1_">
						<g class="st33">
							<path id="nw55562iiG_1_" class="st1" d="M0.8,0.4h226.3v64.1H0.8V0.4z"/>
						</g>
					</mask>
					<path class="st34" d="M204,47.1L202,34.4l-3.5,9.3L204,47.1z"/>
				</g>
				<g transform="translate(-836 -153) translate(0 70) translate(836 83)">
					<defs>
						<filter id="Adobe_OpacityMaskFilter_17_" filterUnits="userSpaceOnUse" x="180.2" y="31.4" width="7.6" height="7.9">
							<feColorMatrix  type="matrix" values="1 0 0 0 0  0 1 0 0 0  0 0 1 0 0  0 0 0 1 0"/>
						</filter>
					</defs>
					<mask maskUnits="userSpaceOnUse" x="180.2" y="31.4" width="7.6" height="7.9" id="s1a8n6uveJ_1_">
						<g class="st35">
							<path id="_x38_4l0g158hI_1_" class="st1" d="M0.8,0.4h226.3v64.1H0.8V0.4z"/>
						</g>
					</mask>
					<path class="st36" d="M185.6,39.3l2.2-7.9l-7.6,6.2L185.6,39.3z"/>
				</g>
				<g transform="translate(-836 -153) translate(0 70) translate(836 83)">
					<defs>
						<filter id="Adobe_OpacityMaskFilter_18_" filterUnits="userSpaceOnUse" x="204" y="21.2" width="14.7" height="21.2">
							<feColorMatrix  type="matrix" values="1 0 0 0 0  0 1 0 0 0  0 0 1 0 0  0 0 0 1 0"/>
						</filter>
					</defs>
					<mask maskUnits="userSpaceOnUse" x="204" y="21.2" width="14.7" height="21.2" id="y0lww5u39L_1_">
						<g class="st37">
							<path id="_x31_kvmqe1zhK_1_" class="st1" d="M0.8,0.4h226.3v64.1H0.8V0.4z"/>
						</g>
					</mask>
					<path class="st38" d="M204,42.4l14.7-21.2l-4,21.2H204z"/>
				</g>
				<g transform="translate(-836 -153) translate(0 70) translate(836 83)">
					<defs>
						<filter id="Adobe_OpacityMaskFilter_19_" filterUnits="userSpaceOnUse" x="216.8" y="21.2" width="10.3" height="24.3">
							<feColorMatrix  type="matrix" values="1 0 0 0 0  0 1 0 0 0  0 0 1 0 0  0 0 0 1 0"/>
						</filter>
					</defs>
					<mask maskUnits="userSpaceOnUse" x="216.8" y="21.2" width="10.3" height="24.3" id="xbdv36yygN_1_">
						<g class="st39">
							<path id="jptt9og55M_1_" class="st1" d="M0.8,0.4h226.3v64.1H0.8V0.4z"/>
						</g>
					</mask>
					<path class="st40" d="M227.1,45.6l-8.4-24.3l-1.9,21.5L227.1,45.6z"/>
				</g>
				<g transform="translate(-836 -153) translate(0 70) translate(836 83)">
					<defs>
						<filter id="Adobe_OpacityMaskFilter_20_" filterUnits="userSpaceOnUse" x="204" y="32.3" width="7.7" height="10.2">
							<feColorMatrix  type="matrix" values="1 0 0 0 0  0 1 0 0 0  0 0 1 0 0  0 0 0 1 0"/>
						</filter>
					</defs>
					<mask maskUnits="userSpaceOnUse" x="204" y="32.3" width="7.7" height="10.2" id="bvnd2isxiP_1_">
						<g class="st41">
							<path id="evcbxktenO_1_" class="st1" d="M0.8,0.4h226.3v64.1H0.8V0.4z"/>
						</g>
					</mask>
					<path class="st42" d="M211.7,42.4L211,32.3l-7,10.2H211.7z"/>
				</g>
				<g class="st43">
					<path class="st44" d="M42.4,72.2H44v6.9h3.6v1.4h-5.2V72.2z"/>
					<path class="st44" d="M48.9,72.2H55v1.4h-4.5v2.1h4.1v1.4h-4.1v2.1h4.7v1.4h-6.3V72.2z"/>
					<path class="st44" d="M63,80.6l-0.7-1.8h-4.1l-0.7,1.8h-1.7l3.7-8.4h1.7l3.6,8.4H63z M58.7,77.4h2.9l-1.5-3.5L58.7,77.4z"/>
					<path class="st44" d="M71,80.6l-1.4-2.5c-0.1,0-0.2,0-0.3,0h-1.9v2.5h-1.6v-8.4h3.5c1.1,0,1.9,0.3,2.5,0.8
						c0.6,0.5,0.9,1.2,0.9,2.1c0,0.7-0.1,1.2-0.4,1.7c-0.3,0.5-0.7,0.8-1.2,1l1.8,2.8H71z M67.3,76.7h1.9c0.6,0,1.1-0.1,1.4-0.4
						c0.3-0.3,0.5-0.7,0.5-1.2c0-0.5-0.2-0.9-0.5-1.2c-0.3-0.3-0.8-0.4-1.4-0.4h-1.9V76.7z"/>
					<path class="st44" d="M80.2,72.2h1.6v8.4h-1.5L76,74.8v5.8h-1.6v-8.4h1.5l4.3,5.8V72.2z"/>
					<path class="st44" d="M87.7,79.2c0.2,0.2,0.2,0.4,0.2,0.6c0,0.3-0.1,0.5-0.2,0.6s-0.4,0.2-0.6,0.2c-0.2,0-0.4-0.1-0.6-0.3
						c-0.2-0.2-0.2-0.4-0.2-0.6c0-0.2,0.1-0.5,0.2-0.6c0.2-0.2,0.3-0.2,0.6-0.2C87.3,79,87.5,79,87.7,79.2z"/>
					<path class="st44" d="M91.5,72.2h6.8v1.4h-2.6v7h-1.6v-7h-2.6V72.2z"/>
					<path class="st44" d="M99.5,72.2h6.1v1.4h-4.5v2.1h4.1v1.4h-4.1v2.1h4.7v1.4h-6.3V72.2z"/>
					<path class="st44" d="M113.6,80.6l-0.7-1.8h-4.1l-0.7,1.8h-1.7l3.7-8.4h1.7l3.6,8.4H113.6z M109.3,77.4h2.9l-1.5-3.5
						L109.3,77.4z"/>
					<path class="st44" d="M121.1,73.8c-0.4-0.2-0.8-0.3-1.2-0.3c-0.5,0-1,0.1-1.4,0.4c-0.4,0.2-0.8,0.6-1,1
						c-0.2,0.4-0.4,0.9-0.4,1.4c0,0.5,0.1,1,0.4,1.4c0.2,0.4,0.6,0.8,1,1c0.4,0.3,0.9,0.4,1.4,0.4c0.4,0,0.8-0.1,1.2-0.3
						s0.8-0.4,1.1-0.7l0.9,1.1c-0.4,0.4-1,0.8-1.5,1.1c-0.6,0.3-1.2,0.4-1.8,0.4c-0.8,0-1.5-0.2-2.2-0.6c-0.7-0.4-1.2-0.9-1.6-1.6
						c-0.4-0.7-0.6-1.4-0.6-2.2s0.2-1.5,0.6-2.2c0.4-0.7,0.9-1.2,1.6-1.5c0.7-0.4,1.4-0.6,2.2-0.6c0.6,0,1.2,0.1,1.8,0.4
						s1.1,0.6,1.5,1l-0.9,1.2C121.9,74.3,121.5,74,121.1,73.8z"/>
					<path class="st44" d="M124.4,72.2h1.6v3.6h4.2v-3.6h1.6v8.4h-1.6v-3.4H126v3.4h-1.6V72.2z"/>
					<path class="st44" d="M137.7,79.2c0.2,0.2,0.2,0.4,0.2,0.6c0,0.3-0.1,0.5-0.2,0.6c-0.2,0.2-0.4,0.2-0.6,0.2
						c-0.2,0-0.4-0.1-0.6-0.3s-0.2-0.4-0.2-0.6c0-0.2,0.1-0.5,0.2-0.6c0.2-0.2,0.3-0.2,0.6-0.2C137.4,79,137.6,79,137.7,79.2z"/>
					<path class="st44" d="M148.7,80.6l-0.7-1.8h-4.1l-0.7,1.8h-1.7l3.7-8.4h1.7l3.6,8.4H148.7z M144.4,77.4h2.9l-1.5-3.5
						L144.4,77.4z"/>
					<path class="st44" d="M155.3,73.7c-0.5-0.1-0.8-0.2-1.2-0.2c-0.4,0-0.7,0.1-0.9,0.2s-0.3,0.3-0.3,0.6c0,0.2,0.1,0.4,0.2,0.6
						s0.4,0.3,0.6,0.4c0.2,0.1,0.6,0.2,1,0.3c0.6,0.2,1,0.3,1.4,0.5c0.4,0.2,0.7,0.4,0.9,0.7c0.3,0.3,0.4,0.8,0.4,1.3
						c0,0.5-0.1,1-0.4,1.3c-0.3,0.4-0.7,0.7-1.1,0.9c-0.5,0.2-1,0.3-1.7,0.3c-0.7,0-1.3-0.1-1.9-0.4c-0.6-0.2-1.2-0.6-1.6-1l0.7-1.4
						c0.4,0.4,0.9,0.7,1.4,0.9c0.5,0.2,1,0.3,1.5,0.3c0.4,0,0.8-0.1,1.1-0.3c0.3-0.2,0.4-0.4,0.4-0.7c0-0.2-0.1-0.4-0.2-0.6
						c-0.2-0.2-0.4-0.3-0.6-0.4s-0.6-0.2-1-0.3c-0.6-0.2-1-0.3-1.4-0.5c-0.4-0.2-0.7-0.4-0.9-0.7c-0.3-0.3-0.4-0.7-0.4-1.3
						c0-0.5,0.1-0.9,0.4-1.3c0.3-0.4,0.6-0.6,1.1-0.8s1-0.3,1.6-0.3c0.5,0,1.1,0.1,1.6,0.2c0.5,0.2,1,0.4,1.4,0.6l-0.6,1.4
						C156.2,74.1,155.7,73.9,155.3,73.7z"/>
					<path class="st44" d="M162.8,73.7c-0.5-0.1-0.8-0.2-1.2-0.2c-0.4,0-0.7,0.1-0.9,0.2c-0.2,0.1-0.3,0.3-0.3,0.6
						c0,0.2,0.1,0.4,0.2,0.6c0.2,0.2,0.4,0.3,0.6,0.4c0.2,0.1,0.6,0.2,1,0.3c0.6,0.2,1,0.3,1.4,0.5c0.4,0.2,0.7,0.4,0.9,0.7
						c0.3,0.3,0.4,0.8,0.4,1.3c0,0.5-0.1,1-0.4,1.3c-0.3,0.4-0.7,0.7-1.1,0.9c-0.5,0.2-1,0.3-1.7,0.3c-0.7,0-1.3-0.1-1.9-0.4
						c-0.6-0.2-1.2-0.6-1.6-1l0.7-1.4c0.4,0.4,0.9,0.7,1.4,0.9c0.5,0.2,1,0.3,1.5,0.3c0.4,0,0.8-0.1,1.1-0.3s0.4-0.4,0.4-0.7
						c0-0.2-0.1-0.4-0.2-0.6c-0.2-0.2-0.4-0.3-0.6-0.4c-0.2-0.1-0.6-0.2-1-0.3c-0.6-0.2-1-0.3-1.4-0.5c-0.4-0.2-0.7-0.4-0.9-0.7
						s-0.4-0.7-0.4-1.3c0-0.5,0.1-0.9,0.4-1.3c0.3-0.4,0.6-0.6,1.1-0.8c0.5-0.2,1-0.3,1.6-0.3c0.5,0,1.1,0.1,1.6,0.2
						c0.5,0.2,1,0.4,1.4,0.6l-0.6,1.4C163.7,74.1,163.3,73.9,162.8,73.7z"/>
					<path class="st44" d="M166.4,72.2h6.1v1.4H168v2.1h4.1v1.4H168v2.1h4.7v1.4h-6.3V72.2z"/>
					<path class="st44" d="M178.2,73.7c-0.5-0.1-0.8-0.2-1.2-0.2c-0.4,0-0.7,0.1-0.9,0.2c-0.2,0.1-0.3,0.3-0.3,0.6
						c0,0.2,0.1,0.4,0.2,0.6c0.2,0.2,0.4,0.3,0.6,0.4c0.2,0.1,0.6,0.2,1,0.3c0.6,0.2,1,0.3,1.4,0.5c0.4,0.2,0.7,0.4,0.9,0.7
						c0.3,0.3,0.4,0.8,0.4,1.3c0,0.5-0.1,1-0.4,1.3c-0.3,0.4-0.7,0.7-1.1,0.9c-0.5,0.2-1,0.3-1.7,0.3c-0.7,0-1.3-0.1-1.9-0.4
						c-0.6-0.2-1.2-0.6-1.6-1l0.7-1.4c0.4,0.4,0.9,0.7,1.4,0.9c0.5,0.2,1,0.3,1.5,0.3c0.4,0,0.8-0.1,1.1-0.3s0.4-0.4,0.4-0.7
						c0-0.2-0.1-0.4-0.2-0.6c-0.2-0.2-0.4-0.3-0.6-0.4c-0.2-0.1-0.6-0.2-1-0.3c-0.6-0.2-1-0.3-1.4-0.5c-0.4-0.2-0.7-0.4-0.9-0.7
						S174,75,174,74.5c0-0.5,0.1-0.9,0.4-1.3c0.3-0.4,0.6-0.6,1.1-0.8c0.5-0.2,1-0.3,1.6-0.3c0.5,0,1.1,0.1,1.6,0.2
						c0.5,0.2,1,0.4,1.4,0.6l-0.6,1.4C179.1,74.1,178.7,73.9,178.2,73.7z"/>
					<path class="st44" d="M185.8,73.7c-0.5-0.1-0.8-0.2-1.2-0.2c-0.4,0-0.7,0.1-0.9,0.2s-0.3,0.3-0.3,0.6c0,0.2,0.1,0.4,0.2,0.6
						s0.4,0.3,0.6,0.4c0.2,0.1,0.6,0.2,1,0.3c0.6,0.2,1,0.3,1.4,0.5c0.4,0.2,0.7,0.4,0.9,0.7c0.3,0.3,0.4,0.8,0.4,1.3
						c0,0.5-0.1,1-0.4,1.3c-0.3,0.4-0.7,0.7-1.1,0.9c-0.5,0.2-1,0.3-1.7,0.3c-0.7,0-1.3-0.1-1.9-0.4c-0.6-0.2-1.2-0.6-1.6-1l0.7-1.4
						c0.4,0.4,0.9,0.7,1.4,0.9c0.5,0.2,1,0.3,1.5,0.3c0.4,0,0.8-0.1,1.1-0.3c0.3-0.2,0.4-0.4,0.4-0.7c0-0.2-0.1-0.4-0.2-0.6
						c-0.2-0.2-0.4-0.3-0.6-0.4s-0.6-0.2-1-0.3c-0.6-0.2-1-0.3-1.4-0.5c-0.4-0.2-0.7-0.4-0.9-0.7c-0.3-0.3-0.4-0.7-0.4-1.3
						c0-0.5,0.1-0.9,0.4-1.3c0.3-0.4,0.6-0.6,1.1-0.8s1-0.3,1.6-0.3c0.5,0,1.1,0.1,1.6,0.2c0.5,0.2,1,0.4,1.4,0.6l-0.6,1.4
						C186.7,74.1,186.2,73.9,185.8,73.7z"/>
				</g>
			</g>
		</g>
	</g>
</g>
</svg>
